# xmcd CD database file
#
# Track frame offsets:
#	150
#	13660
#	25825
#	38941
#	51132
#	64788
#	78808
#	92320
#	104965
#	116573
#	128713
#	143007
#	158266
#	171500
#	185832
#	197782
#	211198
#	221246
#	234338
#	247175
#	257055
#	270512
#	285302
#	295576
#
# Disc length: 4117 seconds
#
# Revision: 1
# Processed by: cddbd v1.5.1PL0 Copyright (c) Steve Scherf et al.
# Submitted via: CDex 1.51
#
DISCID=58101318
DTITLE=Howlin' Wolf - The chronological Howlin' Wolf
DYEAR=2004
DGENRE=Blues
TTITLE0=Worried about my baby
TTITLE1=Brown skin woman
TTITLE2=Driving this highway
TTITLE3=The Sun is rising
TTITLE4=My friends (stealing my clothes)
TTITLE5=I'm the wolf
TTITLE6=Everybody's in the mood
TTITLE7=Bluebird
TTITLE8=Saddle my pony
TTITLE9=Dorothy Mae
TTITLE10=Worried all the time
TTITLE11=Sweet woman
TTITLE12=Well that's all right
TTITLE13=Decoration Day
TTITLE14=Oh, Red!!
TTITLE15=My last affair
TTITLE16=Come back home
TTITLE17=I've got a woman
TTITLE18=Just my kind
TTITLE19=Work for your money
TTITLE20=I'm not joking
TTITLE21=Mamma died and left me
TTITLE22=All night Boogie (All night long)
TTITLE23=I love my Baby
EXTD=YEAR: 2004
EXTT0=
EXTT1=
EXTT2=
EXTT3=
EXTT4=
EXTT5=
EXTT6=
EXTT7=
EXTT8=
EXTT9=
EXTT10=
EXTT11=
EXTT12=
EXTT13=
EXTT14=
EXTT15=
EXTT16=
EXTT17=
EXTT18=
EXTT19=
EXTT20=
EXTT21=
EXTT22=
EXTT23=
PLAYORDER=
